<svg width="121" height="33" viewBox="0 0 121 33" fill="none" xmlns="http://www.w3.org/2000/svg">
    <path d="M92.1841 2.50137C92.5041 1.72595 93.411 1.30521 94.2097 1.56161V1.56161C95.0084 1.81801 95.3965 2.65447 95.0765 3.42989L88.1997 20.0945C87.6664 21.3869 86.1549 22.0881 84.8237 21.6608V21.6608C84.5575 21.5753 84.4282 21.2965 84.5348 21.038L92.1841 2.50137Z" fill="white"/>
    <path d="M92.3082 3.4299C91.9882 2.65448 92.3763 1.81802 93.175 1.56162V1.56162C93.9737 1.30522 94.8806 1.72596 95.2006 2.50138L102.85 21.038C102.957 21.2965 102.827 21.5753 102.561 21.6608V21.6608C101.23 22.0881 99.7183 21.3869 99.185 20.0945L92.3082 3.4299Z" fill="white"/>
    <rect x="89.882" y="12.4997" width="8.00273" height="2.17185" fill="white"/>
    <path d="M23.5018 1.27051C23.9596 0.568826 24.9283 0.322796 25.6655 0.720986V0.720986C26.4027 1.11918 26.6291 2.0108 26.1713 2.71248L14.2188 21.0311C13.4558 22.2006 11.8412 22.6106 10.6126 21.947V21.947C10.3669 21.8143 10.2914 21.517 10.444 21.2832L23.5018 1.27051Z" fill="white"/>
    <path d="M23.3815 2.08896C23.3682 1.24953 24.0369 0.608956 24.875 0.658207V0.658207C25.7131 0.707458 26.4032 1.42788 26.4165 2.26732L26.7328 22.2872C26.7372 22.567 26.5143 22.7805 26.2349 22.7641V22.7641C24.8381 22.682 23.6878 21.4813 23.6657 20.0822L23.3815 2.08896Z" fill="white"/>
    <rect x="17.9887" y="12.5403" width="8.00273" height="2.17185" fill="white"/>
    <path d="M36.2167 4.29711C36.9762 2.52994 39.0821 1.55663 40.9203 2.12317V2.12317C41.1041 2.17983 41.1915 2.36901 41.1156 2.54573L33.9389 19.2427C33.2427 20.8627 31.3123 21.7549 29.6273 21.2355V21.2355C29.2903 21.1317 29.13 20.7848 29.2692 20.4608L36.2167 4.29711Z" fill="white"/>
    <path d="M31.446 21.3195C30.5349 21.3195 29.7964 20.581 29.7964 19.6699V19.6699C29.7964 18.7588 30.5349 18.0203 31.446 18.0203H44.3017C44.4673 18.0203 44.6016 18.1546 44.6016 18.3202V18.3202C44.6016 19.9767 43.2588 21.3195 41.6023 21.3195H31.446Z" fill="white"/>
    <path d="M53.2829 4.22444C53.9566 2.39017 55.9929 1.44065 57.8311 2.10364V2.10364C58.0149 2.16994 58.1093 2.37238 58.042 2.55581L51.4948 20.3811C51.0008 21.7262 49.5075 22.4225 48.1595 21.9363V21.9363C47.4855 21.6932 47.1394 20.9509 47.3864 20.2784L53.2829 4.22444Z" fill="white"/>
    <path d="M64.1994 4.2043C64.8731 2.37003 66.9094 1.42051 68.7476 2.0835V2.0835C68.9314 2.1498 69.0258 2.35224 68.9584 2.53566L62.6276 19.7721C62.01 21.4535 60.1434 22.3239 58.4584 21.7162V21.7162C58.1214 21.5947 57.9483 21.2235 58.0718 20.8872L64.1994 4.2043Z" fill="white"/>
    <path d="M60.5823 18.0718C61.1915 18.068 61.6885 18.5588 61.6923 19.168V19.168C61.7019 20.691 60.4751 21.9333 58.952 21.9428L50.1231 21.9974C49.057 22.004 48.1873 21.1451 48.1806 20.079V20.079C48.1739 19.0128 49.0327 18.1432 50.0988 18.1366L60.5823 18.0718Z" fill="white"/>
    <path d="M71.868 4.41456C72.5444 2.58252 74.5828 1.63203 76.421 2.29159V2.29159C76.6048 2.35754 76.699 2.55953 76.6313 2.74273L69.9751 20.7714C69.6031 21.779 68.4819 22.3018 67.4709 21.939V21.939C66.4599 21.5763 65.942 20.4653 66.314 19.4577L71.868 4.41456Z" fill="white"/>
    <path d="M84.0172 1.84271C85.4875 1.84271 86.6794 3.03459 86.6794 4.50484V4.50484C86.6794 5.09294 86.2026 5.56969 85.6145 5.56969H71.8742V5.56969C71.8742 3.51134 73.5428 1.84271 75.6011 1.84271L84.0172 1.84271Z" fill="white"/>
    <path d="M79.2258 14.0332C79.8772 12.2689 81.8404 11.3535 83.6107 11.9887V11.9887C83.9647 12.1157 84.1461 12.5048 84.0158 12.8576L81.719 19.0787C81.0676 20.8431 79.1044 21.7585 77.3341 21.1233V21.1233C76.9801 20.9962 76.7987 20.6072 76.929 20.2543L79.2258 14.0332Z" fill="white"/>
    <path d="M79.2893 17.8755C79.8954 17.8717 80.3898 18.36 80.3936 18.9661V18.9661C80.4032 20.4812 79.1827 21.7171 77.6676 21.7264L68.8144 21.7809C67.7538 21.7874 66.8886 20.9329 66.8819 19.8723V19.8723C66.8751 18.8117 67.7295 17.9466 68.7901 17.9401L79.2893 17.8755Z" fill="white"/>
    <path d="M77.683 11.6751C76.5682 11.6555 75.6467 12.5433 75.6248 13.658V13.658C75.6204 13.881 75.7976 14.0649 76.0206 14.0688L82.0166 14.1744C83.1313 14.194 84.0528 13.3062 84.0747 12.1915V12.1915C84.0791 11.9686 83.9019 11.7846 83.6789 11.7807L77.683 11.6751Z" fill="white"/>
    <path d="M109.482 15.9518C109.482 14.6834 110.51 13.6552 111.778 13.6552V13.6552C113.047 13.6552 114.075 14.6834 114.075 15.9518V29.1722C114.075 31.2862 112.361 33 110.247 33V33C109.825 33 109.482 32.6572 109.482 32.2344V15.9518Z" fill="#941C2F"/>
    <path d="M0.965088 23.3276C0.965088 22.0706 1.98403 21.0517 3.24095 21.0517H120.206C120.625 21.0517 120.965 21.3913 120.965 21.8103V21.8103C120.965 23.9052 119.267 25.6034 117.172 25.6034H3.24095C1.98403 25.6034 0.965088 24.5845 0.965088 23.3276V23.3276Z" fill="#941C2F"/>
</svg>
